<svg xmlns="http://www.w3.org/2000/svg" width="805" height="600"><rect width="805" height="600" x="0" y="0" fill="#FFFFFF" id="background"/><g id="viz" transform="translate(20,20)"><g id="lines" fill="none"><path d="M0,0L382.5,233.33333333333334L765,40" stroke="rgb(103, 0, 31)" stroke-width="1" stroke-opacity="0.5"/><path d="M0,485.33333333333337L382.5,420L765,300" stroke="rgb(117, 5, 33)" stroke-width="1" stroke-opacity="0.5"/><path d="M0,93.33333333333333L382.5,116.66666666666667L765,60" stroke="rgb(133, 10, 36)" stroke-width="1" stroke-opacity="0.5"/><path d="M0,112L382.5,326.6666666666667L765,0" stroke="rgb(156, 21, 42)" stroke-width="1" stroke-opacity="0.5"/><path d="M0,0L382.5,46.666666666666664L765,300" stroke="rgb(171, 32, 47)" stroke-width="1" stroke-opacity="0.5"/><path d="M0,168L382.5,93.33333333333333L765,200" stroke="rgb(179, 39, 50)" stroke-width="1" stroke-opacity="0.5"/><path d="M0,18.666666666666668L382.5,116.66666666666667L765,100" stroke="rgb(196, 63, 62)" stroke-width="1" stroke-opacity="0.5"/><path d="M0,0L382.5,0L765,60" stroke="rgb(201, 71, 66)" stroke-width="1" stroke-opacity="0.5"/><path d="M0,93.33333333333333L382.5,163.33333333333334L765,380" stroke="rgb(204, 77, 69)" stroke-width="1" stroke-opacity="0.5"/><path d="M0,205.33333333333331L382.5,303.3333333333333L765,260" stroke="rgb(210, 90, 77)" stroke-width="1" stroke-opacity="0.5"/><path d="M0,448L382.5,466.6666666666667L765,40" stroke="rgb(222, 114, 93)" stroke-width="1" stroke-opacity="0.5"/><path d="M0,186.66666666666666L382.5,163.33333333333334L765,240" stroke="rgb(230, 133, 106)" stroke-width="1" stroke-opacity="0.5"/><path d="M0,298.6666666666667L382.5,303.3333333333333L765,160" stroke="rgb(233, 142, 114)" stroke-width="1" stroke-opacity="0.5"/><path d="M0,354.66666666666663L382.5,233.33333333333334L765,100" stroke="rgb(241, 166, 136)" stroke-width="1" stroke-opacity="0.5"/><path d="M0,429.33333333333337L382.5,116.66666666666667L765,560" stroke="rgb(245, 178, 149)" stroke-width="1" stroke-opacity="0.5"/><path d="M0,410.66666666666663L382.5,396.6666666666667L765,460" stroke="rgb(247, 187, 160)" stroke-width="1" stroke-opacity="0.5"/><path d="M0,149.33333333333334L382.5,140L765,260" stroke="rgb(250, 207, 185)" stroke-width="1" stroke-opacity="0.5"/><path d="M0,298.6666666666667L382.5,373.3333333333333L765,520" stroke="rgb(251, 216, 197)" stroke-width="1" stroke-opacity="0.5"/><path d="M0,205.33333333333331L382.5,326.6666666666667L765,300" stroke="rgb(251, 222, 206)" stroke-width="1" stroke-opacity="0.5"/><path d="M0,149.33333333333334L382.5,280L765,80" stroke="rgb(249, 231, 221)" stroke-width="1" stroke-opacity="0.5"/><path d="M0,224L382.5,303.3333333333333L765,60" stroke="rgb(247, 236, 229)" stroke-width="1" stroke-opacity="0.5"/><path d="M0,410.66666666666663L382.5,396.6666666666667L765,300" stroke="rgb(244, 239, 236)" stroke-width="1" stroke-opacity="0.5"/><path d="M0,298.6666666666667L382.5,280L765,120" stroke="rgb(236, 239, 241)" stroke-width="1" stroke-opacity="0.5"/><path d="M0,485.33333333333337L382.5,443.3333333333333L765,540" stroke="rgb(228, 237, 242)" stroke-width="1" stroke-opacity="0.5"/><path d="M0,298.6666666666667L382.5,326.6666666666667L765,320" stroke="rgb(222, 235, 242)" stroke-width="1" stroke-opacity="0.5"/><path d="M0,149.33333333333334L382.5,23.333333333333332L765,60" stroke="rgb(204, 226, 238)" stroke-width="1" stroke-opacity="0.5"/><path d="M0,112L382.5,116.66666666666667L765,300" stroke="rgb(191, 219, 234)" stroke-width="1" stroke-opacity="0.5"/><path d="M0,205.33333333333331L382.5,70L765,260" stroke="rgb(184, 216, 233)" stroke-width="1" stroke-opacity="0.5"/><path d="M0,224L382.5,326.6666666666667L765,120" stroke="rgb(162, 205, 226)" stroke-width="1" stroke-opacity="0.5"/><path d="M0,242.66666666666669L382.5,303.3333333333333L765,60" stroke="rgb(142, 193, 220)" stroke-width="1" stroke-opacity="0.5"/><path d="M0,205.33333333333331L382.5,350L765,120" stroke="rgb(133, 188, 217)" stroke-width="1" stroke-opacity="0.5"/><path d="M0,242.66666666666669L382.5,326.6666666666667L765,60" stroke="rgb(107, 172, 208)" stroke-width="1" stroke-opacity="0.5"/><path d="M0,280L382.5,186.66666666666666L765,340" stroke="rgb(96, 164, 204)" stroke-width="1" stroke-opacity="0.5"/><path d="M0,336L382.5,233.33333333333334L765,140" stroke="rgb(79, 152, 198)" stroke-width="1" stroke-opacity="0.5"/><path d="M0,37.333333333333336L382.5,233.33333333333334L765,80" stroke="rgb(64, 138, 191)" stroke-width="1" stroke-opacity="0.5"/><path d="M0,205.33333333333331L382.5,350L765,140" stroke="rgb(54, 128, 185)" stroke-width="1" stroke-opacity="0.5"/><path d="M0,392L382.5,396.6666666666667L765,80" stroke="rgb(46, 118, 178)" stroke-width="1" stroke-opacity="0.5"/><path d="M0,560L382.5,560L765,460" stroke="rgb(37, 105, 167)" stroke-width="1" stroke-opacity="0.5"/><path d="M0,392L382.5,350L765,260" stroke="rgb(29, 93, 155)" stroke-width="1" stroke-opacity="0.5"/><path d="M0,317.3333333333333L382.5,350L765,260" stroke="rgb(23, 81, 141)" stroke-width="1" stroke-opacity="0.5"/><path d="M0,317.3333333333333L382.5,280L765,20" stroke="rgb(12, 62, 116)" stroke-width="1" stroke-opacity="0.5"/><path d="M0,130.66666666666666L382.5,186.66666666666666L765,80" stroke="rgb(5, 48, 97)" stroke-width="1" stroke-opacity="0.5"/></g><g><g transform="translate(0,0)" fill="none" font-size="10" font-family="sans-serif" text-anchor="end"><path class="domain" stroke="currentColor" d="M-6,0.5H0.5V560.5H-6"/><g class="tick" opacity="1" transform="translate(0,19.166666666666668)"><line stroke="currentColor" x2="-6"/><text fill="currentColor" x="-9" dy="0.32em">110</text></g><g class="tick" opacity="1" transform="translate(0,56.5)"><line stroke="currentColor" x2="-6"/><text fill="currentColor" x="-9" dy="0.32em">112</text></g><g class="tick" opacity="1" transform="translate(0,93.83333333333333)"><line stroke="currentColor" x2="-6"/><text fill="currentColor" x="-9" dy="0.32em">114</text></g><g class="tick" opacity="1" transform="translate(0,131.16666666666666)"><line stroke="currentColor" x2="-6"/><text fill="currentColor" x="-9" dy="0.32em">116</text></g><g class="tick" opacity="1" transform="translate(0,168.5)"><line stroke="currentColor" x2="-6"/><text fill="currentColor" x="-9" dy="0.32em">118</text></g><g class="tick" opacity="1" transform="translate(0,205.83333333333331)"><line stroke="currentColor" x2="-6"/><text fill="currentColor" x="-9" dy="0.32em">120</text></g><g class="tick" opacity="1" transform="translate(0,243.16666666666669)"><line stroke="currentColor" x2="-6"/><text fill="currentColor" x="-9" dy="0.32em">122</text></g><g class="tick" opacity="1" transform="translate(0,280.5)"><line stroke="currentColor" x2="-6"/><text fill="currentColor" x="-9" dy="0.32em">124</text></g><g class="tick" opacity="1" transform="translate(0,317.8333333333333)"><line stroke="currentColor" x2="-6"/><text fill="currentColor" x="-9" dy="0.32em">126</text></g><g class="tick" opacity="1" transform="translate(0,355.16666666666663)"><line stroke="currentColor" x2="-6"/><text fill="currentColor" x="-9" dy="0.32em">128</text></g><g class="tick" opacity="1" transform="translate(0,392.5)"><line stroke="currentColor" x2="-6"/><text fill="currentColor" x="-9" dy="0.32em">130</text></g><g class="tick" opacity="1" transform="translate(0,429.83333333333337)"><line stroke="currentColor" x2="-6"/><text fill="currentColor" x="-9" dy="0.32em">132</text></g><g class="tick" opacity="1" transform="translate(0,467.1666666666667)"><line stroke="currentColor" x2="-6"/><text fill="currentColor" x="-9" dy="0.32em">134</text></g><g class="tick" opacity="1" transform="translate(0,504.5)"><line stroke="currentColor" x2="-6"/><text fill="currentColor" x="-9" dy="0.32em">136</text></g><g class="tick" opacity="1" transform="translate(0,541.8333333333334)"><line stroke="currentColor" x2="-6"/><text fill="currentColor" x="-9" dy="0.32em">138</text></g><text y="-6" text-anchor="start" fill="currentColor">Sistolica</text></g><g transform="translate(382.5,0)" fill="none" font-size="10" font-family="sans-serif" text-anchor="end"><path class="domain" stroke="currentColor" d="M-6,0.5H0.5V560.5H-6"/><g class="tick" opacity="1" transform="translate(0,23.833333333333332)"><line stroke="currentColor" x2="-6"/><text fill="currentColor" x="-9" dy="0.32em">66</text></g><g class="tick" opacity="1" transform="translate(0,70.5)"><line stroke="currentColor" x2="-6"/><text fill="currentColor" x="-9" dy="0.32em">68</text></g><g class="tick" opacity="1" transform="translate(0,117.16666666666667)"><line stroke="currentColor" x2="-6"/><text fill="currentColor" x="-9" dy="0.32em">70</text></g><g class="tick" opacity="1" transform="translate(0,163.83333333333334)"><line stroke="currentColor" x2="-6"/><text fill="currentColor" x="-9" dy="0.32em">72</text></g><g class="tick" opacity="1" transform="translate(0,210.5)"><line stroke="currentColor" x2="-6"/><text fill="currentColor" x="-9" dy="0.32em">74</text></g><g class="tick" opacity="1" transform="translate(0,257.16666666666663)"><line stroke="currentColor" x2="-6"/><text fill="currentColor" x="-9" dy="0.32em">76</text></g><g class="tick" opacity="1" transform="translate(0,303.8333333333333)"><line stroke="currentColor" x2="-6"/><text fill="currentColor" x="-9" dy="0.32em">78</text></g><g class="tick" opacity="1" transform="translate(0,350.5)"><line stroke="currentColor" x2="-6"/><text fill="currentColor" x="-9" dy="0.32em">80</text></g><g class="tick" opacity="1" transform="translate(0,397.1666666666667)"><line stroke="currentColor" x2="-6"/><text fill="currentColor" x="-9" dy="0.32em">82</text></g><g class="tick" opacity="1" transform="translate(0,443.8333333333333)"><line stroke="currentColor" x2="-6"/><text fill="currentColor" x="-9" dy="0.32em">84</text></g><g class="tick" opacity="1" transform="translate(0,490.5)"><line stroke="currentColor" x2="-6"/><text fill="currentColor" x="-9" dy="0.32em">86</text></g><g class="tick" opacity="1" transform="translate(0,537.1666666666667)"><line stroke="currentColor" x2="-6"/><text fill="currentColor" x="-9" dy="0.32em">88</text></g><text y="-6" text-anchor="start" fill="currentColor">DIastolica</text></g><g transform="translate(765,0)" fill="none" font-size="10" font-family="sans-serif" text-anchor="end"><path class="domain" stroke="currentColor" d="M-6,0.5H0.5V560.5H-6"/><g class="tick" opacity="1" transform="translate(0,0.5)"><line stroke="currentColor" x2="-6"/><text fill="currentColor" x="-9" dy="0.32em">62</text></g><g class="tick" opacity="1" transform="translate(0,40.5)"><line stroke="currentColor" x2="-6"/><text fill="currentColor" x="-9" dy="0.32em">64</text></g><g class="tick" opacity="1" transform="translate(0,80.5)"><line stroke="currentColor" x2="-6"/><text fill="currentColor" x="-9" dy="0.32em">66</text></g><g class="tick" opacity="1" transform="translate(0,120.5)"><line stroke="currentColor" x2="-6"/><text fill="currentColor" x="-9" dy="0.32em">68</text></g><g class="tick" opacity="1" transform="translate(0,160.5)"><line stroke="currentColor" x2="-6"/><text fill="currentColor" x="-9" dy="0.32em">70</text></g><g class="tick" opacity="1" transform="translate(0,200.5)"><line stroke="currentColor" x2="-6"/><text fill="currentColor" x="-9" dy="0.32em">72</text></g><g class="tick" opacity="1" transform="translate(0,240.5)"><line stroke="currentColor" x2="-6"/><text fill="currentColor" x="-9" dy="0.32em">74</text></g><g class="tick" opacity="1" transform="translate(0,280.5)"><line stroke="currentColor" x2="-6"/><text fill="currentColor" x="-9" dy="0.32em">76</text></g><g class="tick" opacity="1" transform="translate(0,320.5)"><line stroke="currentColor" x2="-6"/><text fill="currentColor" x="-9" dy="0.32em">78</text></g><g class="tick" opacity="1" transform="translate(0,360.5)"><line stroke="currentColor" x2="-6"/><text fill="currentColor" x="-9" dy="0.32em">80</text></g><g class="tick" opacity="1" transform="translate(0,400.5)"><line stroke="currentColor" x2="-6"/><text fill="currentColor" x="-9" dy="0.32em">82</text></g><g class="tick" opacity="1" transform="translate(0,440.5)"><line stroke="currentColor" x2="-6"/><text fill="currentColor" x="-9" dy="0.32em">84</text></g><g class="tick" opacity="1" transform="translate(0,480.5)"><line stroke="currentColor" x2="-6"/><text fill="currentColor" x="-9" dy="0.32em">86</text></g><g class="tick" opacity="1" transform="translate(0,520.5)"><line stroke="currentColor" x2="-6"/><text fill="currentColor" x="-9" dy="0.32em">88</text></g><g class="tick" opacity="1" transform="translate(0,560.5)"><line stroke="currentColor" x2="-6"/><text fill="currentColor" x="-9" dy="0.32em">90</text></g><text y="-6" text-anchor="start" fill="currentColor">Pulaciones</text></g></g></g></svg>