<svg xmlns="http://www.w3.org/2000/svg" width="805" height="600"><rect width="805" height="600" x="0" y="0" fill="#FFFFFF" id="background"/><g id="series"><g transform="translate(0,0)"><g transform="translate(100,100)" clip-path="url(#serieClipPath)"><g id="axis"><g transform="translate(0,400)" fill="none" font-size="10" font-family="sans-serif" text-anchor="middle"><path class="domain" stroke="currentColor" d="M0.5,6V0.5H605.5V6"/><g class="tick" opacity="1" transform="translate(0.5,0)"><line stroke="currentColor" y2="6"/><text fill="currentColor" y="9" dy="0.71em">64</text></g><g class="tick" opacity="1" transform="translate(47.5,0)"><line stroke="currentColor" y2="6"/><text fill="currentColor" y="9" dy="0.71em">66</text></g><g class="tick" opacity="1" transform="translate(93.5,0)"><line stroke="currentColor" y2="6"/><text fill="currentColor" y="9" dy="0.71em">68</text></g><g class="tick" opacity="1" transform="translate(140.5,0)"><line stroke="currentColor" y2="6"/><text fill="currentColor" y="9" dy="0.71em">70</text></g><g class="tick" opacity="1" transform="translate(186.5,0)"><line stroke="currentColor" y2="6"/><text fill="currentColor" y="9" dy="0.71em">72</text></g><g class="tick" opacity="1" transform="translate(233.5,0)"><line stroke="currentColor" y2="6"/><text fill="currentColor" y="9" dy="0.71em">74</text></g><g class="tick" opacity="1" transform="translate(279.5,0)"><line stroke="currentColor" y2="6"/><text fill="currentColor" y="9" dy="0.71em">76</text></g><g class="tick" opacity="1" transform="translate(326.5,0)"><line stroke="currentColor" y2="6"/><text fill="currentColor" y="9" dy="0.71em">78</text></g><g class="tick" opacity="1" transform="translate(372.5,0)"><line stroke="currentColor" y2="6"/><text fill="currentColor" y="9" dy="0.71em">80</text></g><g class="tick" opacity="1" transform="translate(419.5,0)"><line stroke="currentColor" y2="6"/><text fill="currentColor" y="9" dy="0.71em">82</text></g><g class="tick" opacity="1" transform="translate(465.5,0)"><line stroke="currentColor" y2="6"/><text fill="currentColor" y="9" dy="0.71em">84</text></g><g class="tick" opacity="1" transform="translate(512.5,0)"><line stroke="currentColor" y2="6"/><text fill="currentColor" y="9" dy="0.71em">86</text></g><g class="tick" opacity="1" transform="translate(558.5,0)"><line stroke="currentColor" y2="6"/><text fill="currentColor" y="9" dy="0.71em">88</text></g><g class="tick" opacity="1" transform="translate(605.5,0)"><line stroke="currentColor" y2="6"/><text fill="currentColor" y="9" dy="0.71em">90</text></g><text x="605" dy="-5" text-anchor="end" style="font-family: Arial, sans-serif; font-size: 12px; fill: rgb(123, 123, 123); font-weight: bold;">DIastolica</text></g><g fill="none" font-size="10" font-family="sans-serif" text-anchor="end"><path class="domain" stroke="currentColor" d="M-6,400.5H0.5V0.5H-6"/><g class="tick" opacity="1" transform="translate(0,400.5)"><line stroke="currentColor" x2="-6"/><text fill="currentColor" x="-9" dy="0.32em">105</text></g><g class="tick" opacity="1" transform="translate(0,343.5)"><line stroke="currentColor" x2="-6"/><text fill="currentColor" x="-9" dy="0.32em">110</text></g><g class="tick" opacity="1" transform="translate(0,286.5)"><line stroke="currentColor" x2="-6"/><text fill="currentColor" x="-9" dy="0.32em">115</text></g><g class="tick" opacity="1" transform="translate(0,229.5)"><line stroke="currentColor" x2="-6"/><text fill="currentColor" x="-9" dy="0.32em">120</text></g><g class="tick" opacity="1" transform="translate(0,171.5)"><line stroke="currentColor" x2="-6"/><text fill="currentColor" x="-9" dy="0.32em">125</text></g><g class="tick" opacity="1" transform="translate(0,114.5)"><line stroke="currentColor" x2="-6"/><text fill="currentColor" x="-9" dy="0.32em">130</text></g><g class="tick" opacity="1" transform="translate(0,57.5)"><line stroke="currentColor" x2="-6"/><text fill="currentColor" x="-9" dy="0.32em">135</text></g><g class="tick" opacity="1" transform="translate(0,0.5)"><line stroke="currentColor" x2="-6"/><text fill="currentColor" x="-9" dy="0.32em">140</text></g><text x="4" text-anchor="start" dominant-baseline="hanging" style="font-family: Arial, sans-serif; font-size: 12px; fill: rgb(123, 123, 123); font-weight: bold;">Sistolica</text></g></g><g id="viz"><g><circle cx="140" cy="91" fill="rgb(173, 208, 230)" r="8" stroke="none"/></g><g><circle cx="442" cy="57" fill="rgb(243, 249, 254)" r="7" stroke="none"/></g><g><circle cx="70" cy="354" fill="rgb(227, 238, 249)" r="7" stroke="none"/></g><g><circle cx="116" cy="251" fill="rgb(224, 236, 248)" r="7" stroke="none"/></g><g><circle cx="186" cy="297" fill="rgb(213, 229, 244)" r="7" stroke="none"/></g><g><circle cx="326" cy="229" fill="rgb(209, 226, 243)" r="7" stroke="none"/></g><g><circle cx="186" cy="240" fill="rgb(194, 218, 238)" r="7" stroke="none"/></g><g><circle cx="326" cy="171" fill="rgb(191, 216, 236)" r="7" stroke="none"/></g><g><circle cx="419" cy="103" fill="rgb(167, 206, 229)" r="7" stroke="none"/></g><g><circle cx="163" cy="263" fill="rgb(154, 199, 225)" r="7" stroke="none"/></g><g><circle cx="396" cy="171" fill="rgb(146, 195, 223)" r="7" stroke="none"/></g><g><circle cx="349" cy="229" fill="rgb(140, 192, 221)" r="7" stroke="none"/></g><g><circle cx="419" cy="103" fill="rgb(112, 176, 214)" r="7" stroke="none"/></g><g><circle cx="303" cy="171" fill="rgb(101, 169, 211)" r="7" stroke="none"/></g><g><circle cx="465" cy="57" fill="rgb(92, 164, 208)" r="7" stroke="none"/></g><g><circle cx="349" cy="171" fill="rgb(87, 160, 206)" r="7" stroke="none"/></g><g><circle cx="140" cy="286" fill="rgb(67, 145, 198)" r="7" stroke="none"/></g><g><circle cx="93" cy="229" fill="rgb(64, 142, 196)" r="7" stroke="none"/></g><g><circle cx="349" cy="217" fill="rgb(54, 133, 191)" r="7" stroke="none"/></g><g><circle cx="372" cy="229" fill="rgb(43, 123, 185)" r="7" stroke="none"/></g><g><circle cx="209" cy="183" fill="rgb(31, 109, 177)" r="7" stroke="none"/></g><g><circle cx="256" cy="149" fill="rgb(25, 102, 172)" r="7" stroke="none"/></g><g><circle cx="372" cy="229" fill="rgb(16, 89, 161)" r="7" stroke="none"/></g><g><circle cx="582" cy="11" fill="rgb(11, 77, 147)" r="7" stroke="none"/></g><g><circle cx="372" cy="114" fill="rgb(9, 70, 139)" r="7" stroke="none"/></g><g><circle cx="372" cy="160" fill="rgb(9, 64, 131)" r="7" stroke="none"/></g><g><circle cx="256" cy="354" fill="rgb(247, 251, 255)" r="6" stroke="none"/></g><g><circle cx="140" cy="297" fill="rgb(239, 246, 252)" r="6" stroke="none"/></g><g><circle cx="349" cy="286" fill="rgb(232, 241, 250)" r="6" stroke="none"/></g><g><circle cx="140" cy="343" fill="rgb(217, 231, 245)" r="6" stroke="none"/></g><g><circle cx="23" cy="354" fill="rgb(214, 230, 244)" r="6" stroke="none"/></g><g><circle cx="489" cy="80" fill="rgb(201, 222, 240)" r="6" stroke="none"/></g><g><circle cx="256" cy="137" fill="rgb(180, 211, 233)" r="6" stroke="none"/></g><g><circle cx="303" cy="263" fill="rgb(128, 185, 218)" r="6" stroke="none"/></g><g><circle cx="326" cy="217" fill="rgb(120, 181, 216)" r="6" stroke="none"/></g><g><circle cx="47" cy="263" fill="rgb(75, 151, 201)" r="6" stroke="none"/></g><g><circle cx="326" cy="206" fill="rgb(46, 126, 187)" r="6" stroke="none"/></g><g><circle cx="349" cy="206" fill="rgb(34, 113, 180)" r="6" stroke="none"/></g><g><circle cx="256" cy="331" fill="rgb(20, 95, 166)" r="6" stroke="none"/></g><g><circle cx="419" cy="114" fill="rgb(13, 84, 155)" r="6" stroke="none"/></g><g><circle cx="303" cy="160" fill="rgb(8, 55, 117)" r="6" stroke="none"/></g><g><circle cx="209" cy="274" fill="rgb(8, 48, 107)" r="6" stroke="none"/></g><g id="labels"><g transform="translate(140,91)"><text x="0" y="0" text-anchor="middle" dominant-baseline="text-before-edge" transform="translate(0,0)"><tspan x="0" y="0" dy="0"/></text></g><g transform="translate(442,57)"><text x="0" y="0" text-anchor="middle" dominant-baseline="text-before-edge" transform="translate(0,0)"><tspan x="0" y="0" dy="0"/></text></g><g transform="translate(70,354)"><text x="0" y="0" text-anchor="middle" dominant-baseline="text-before-edge" transform="translate(0,0)"><tspan x="0" y="0" dy="0"/></text></g><g transform="translate(116,251)"><text x="0" y="0" text-anchor="middle" dominant-baseline="text-before-edge" transform="translate(0,0)"><tspan x="0" y="0" dy="0"/></text></g><g transform="translate(186,297)"><text x="0" y="0" text-anchor="middle" dominant-baseline="text-before-edge" transform="translate(0,0)"><tspan x="0" y="0" dy="0"/></text></g><g transform="translate(326,229)"><text x="0" y="0" text-anchor="middle" dominant-baseline="text-before-edge" transform="translate(0,0)"><tspan x="0" y="0" dy="0"/></text></g><g transform="translate(186,240)"><text x="0" y="0" text-anchor="middle" dominant-baseline="text-before-edge" transform="translate(0,0)"><tspan x="0" y="0" dy="0"/></text></g><g transform="translate(326,171)"><text x="0" y="0" text-anchor="middle" dominant-baseline="text-before-edge" transform="translate(0,0)"><tspan x="0" y="0" dy="0"/></text></g><g transform="translate(419,103)"><text x="0" y="0" text-anchor="middle" dominant-baseline="text-before-edge" transform="translate(0,0)"><tspan x="0" y="0" dy="0"/></text></g><g transform="translate(163,263)"><text x="0" y="0" text-anchor="middle" dominant-baseline="text-before-edge" transform="translate(0,0)"><tspan x="0" y="0" dy="0"/></text></g><g transform="translate(396,171)"><text x="0" y="0" text-anchor="middle" dominant-baseline="text-before-edge" transform="translate(0,0)"><tspan x="0" y="0" dy="0"/></text></g><g transform="translate(349,229)"><text x="0" y="0" text-anchor="middle" dominant-baseline="text-before-edge" transform="translate(0,0)"><tspan x="0" y="0" dy="0"/></text></g><g transform="translate(419,103)"><text x="0" y="0" text-anchor="middle" dominant-baseline="text-before-edge" transform="translate(0,0)"><tspan x="0" y="0" dy="0"/></text></g><g transform="translate(303,171)"><text x="0" y="0" text-anchor="middle" dominant-baseline="text-before-edge" transform="translate(0,0)"><tspan x="0" y="0" dy="0"/></text></g><g transform="translate(465,57)"><text x="0" y="0" text-anchor="middle" dominant-baseline="text-before-edge" transform="translate(0,0)"><tspan x="0" y="0" dy="0"/></text></g><g transform="translate(349,171)"><text x="0" y="0" text-anchor="middle" dominant-baseline="text-before-edge" transform="translate(0,0)"><tspan x="0" y="0" dy="0"/></text></g><g transform="translate(140,286)"><text x="0" y="0" text-anchor="middle" dominant-baseline="text-before-edge" transform="translate(0,0)"><tspan x="0" y="0" dy="0"/></text></g><g transform="translate(93,229)"><text x="0" y="0" text-anchor="middle" dominant-baseline="text-before-edge" transform="translate(0,0)"><tspan x="0" y="0" dy="0"/></text></g><g transform="translate(349,217)"><text x="0" y="0" text-anchor="middle" dominant-baseline="text-before-edge" transform="translate(0,0)"><tspan x="0" y="0" dy="0"/></text></g><g transform="translate(372,229)"><text x="0" y="0" text-anchor="middle" dominant-baseline="text-before-edge" transform="translate(0,0)"><tspan x="0" y="0" dy="0"/></text></g><g transform="translate(209,183)"><text x="0" y="0" text-anchor="middle" dominant-baseline="text-before-edge" transform="translate(0,0)"><tspan x="0" y="0" dy="0"/></text></g><g transform="translate(256,149)"><text x="0" y="0" text-anchor="middle" dominant-baseline="text-before-edge" transform="translate(0,0)"><tspan x="0" y="0" dy="0"/></text></g><g transform="translate(372,229)"><text x="0" y="0" text-anchor="middle" dominant-baseline="text-before-edge" transform="translate(0,0)"><tspan x="0" y="0" dy="0"/></text></g><g transform="translate(582,11)"><text x="0" y="0" text-anchor="middle" dominant-baseline="text-before-edge" transform="translate(0,0)"><tspan x="0" y="0" dy="0"/></text></g><g transform="translate(372,114)"><text x="0" y="0" text-anchor="middle" dominant-baseline="text-before-edge" transform="translate(0,0)"><tspan x="0" y="0" dy="0"/></text></g><g transform="translate(372,160)"><text x="0" y="0" text-anchor="middle" dominant-baseline="text-before-edge" transform="translate(0,0)"><tspan x="0" y="0" dy="0"/></text></g><g transform="translate(256,354)"><text x="0" y="0" text-anchor="middle" dominant-baseline="text-before-edge" transform="translate(0,0)"><tspan x="0" y="0" dy="0"/></text></g><g transform="translate(140,297)"><text x="0" y="0" text-anchor="middle" dominant-baseline="text-before-edge" transform="translate(0,0)"><tspan x="0" y="0" dy="0"/></text></g><g transform="translate(349,286)"><text x="0" y="0" text-anchor="middle" dominant-baseline="text-before-edge" transform="translate(0,0)"><tspan x="0" y="0" dy="0"/></text></g><g transform="translate(140,343)"><text x="0" y="0" text-anchor="middle" dominant-baseline="text-before-edge" transform="translate(0,0)"><tspan x="0" y="0" dy="0"/></text></g><g transform="translate(23,354)"><text x="0" y="0" text-anchor="middle" dominant-baseline="text-before-edge" transform="translate(0,0)"><tspan x="0" y="0" dy="0"/></text></g><g transform="translate(489,80)"><text x="0" y="0" text-anchor="middle" dominant-baseline="text-before-edge" transform="translate(0,0)"><tspan x="0" y="0" dy="0"/></text></g><g transform="translate(256,137)"><text x="0" y="0" text-anchor="middle" dominant-baseline="text-before-edge" transform="translate(0,0)"><tspan x="0" y="0" dy="0"/></text></g><g transform="translate(303,263)"><text x="0" y="0" text-anchor="middle" dominant-baseline="text-before-edge" transform="translate(0,0)"><tspan x="0" y="0" dy="0"/></text></g><g transform="translate(326,217)"><text x="0" y="0" text-anchor="middle" dominant-baseline="text-before-edge" transform="translate(0,0)"><tspan x="0" y="0" dy="0"/></text></g><g transform="translate(47,263)"><text x="0" y="0" text-anchor="middle" dominant-baseline="text-before-edge" transform="translate(0,0)"><tspan x="0" y="0" dy="0"/></text></g><g transform="translate(326,206)"><text x="0" y="0" text-anchor="middle" dominant-baseline="text-before-edge" transform="translate(0,0)"><tspan x="0" y="0" dy="0"/></text></g><g transform="translate(349,206)"><text x="0" y="0" text-anchor="middle" dominant-baseline="text-before-edge" transform="translate(0,0)"><tspan x="0" y="0" dy="0"/></text></g><g transform="translate(256,331)"><text x="0" y="0" text-anchor="middle" dominant-baseline="text-before-edge" transform="translate(0,0)"><tspan x="0" y="0" dy="0"/></text></g><g transform="translate(419,114)"><text x="0" y="0" text-anchor="middle" dominant-baseline="text-before-edge" transform="translate(0,0)"><tspan x="0" y="0" dy="0"/></text></g><g transform="translate(303,160)"><text x="0" y="0" text-anchor="middle" dominant-baseline="text-before-edge" transform="translate(0,0)"><tspan x="0" y="0" dy="0"/></text></g><g transform="translate(209,274)"><text x="0" y="0" text-anchor="middle" dominant-baseline="text-before-edge" transform="translate(0,0)"><tspan x="0" y="0" dy="0"/></text></g></g></g></g><text y="4" x="4" style="font-family: Arial, sans-serif; font-size: 12px; fill: black; font-weight: bold; dominant-baseline: hanging;"/></g></g><g id="grid"><rect x="0" y="0" width="805" height="600" fill="none" stroke="#ccc"/></g><clipPath id="serieClipPath"><rect x="-100" y="-100" width="805" height="600"/></clipPath></svg>